<svg xmlns="http://www.w3.org/2000/svg" xmlns:xlink="http://www.w3.org/1999/xlink" viewBox="0 0 555.25 555.25"><defs><radialGradient id="a" cx="-28.86" cy="710.78" r="1" gradientTransform="matrix(277.63, 0, 0, -277.63, 8299.75, 197615.82)" gradientUnits="userSpaceOnUse"><stop offset="0" stop-color="#fff"/><stop offset="0.1" stop-color="#ececec"/><stop offset="0.31" stop-color="#bcbcbc"/><stop offset="0.61" stop-color="#6f6f6f"/><stop offset="0.98" stop-color="#050505"/><stop offset="1"/></radialGradient><clipPath id="b" transform="translate(-9 -7)"><rect x="9" y="7" width="555.25" height="555.25" style="fill:none"/></clipPath><filter id="e" x="0" y="0" width="573.25" height="563.25" filterUnits="userSpaceOnUse" color-interpolation-filters="sRGB"><feFlood flood-color="#fff" result="bg"/><feBlend in="SourceGraphic" in2="bg"/></filter><mask id="d" x="-9" y="-7" width="573.25" height="563.25" maskUnits="userSpaceOnUse"><g style="filter:url(#e)"><g transform="translate(-9 -7)"><rect x="9" y="7" width="555.25" height="555.25" style="fill:url(#a)"/></g></g></mask><clipPath id="f" transform="translate(-9 -7)"><rect width="573.25" height="563.25" style="fill:none"/></clipPath><clipPath id="h" transform="translate(-9 -7)"><rect x="118.65" y="116.02" width="326.82" height="321.72" style="fill:none"/></clipPath><clipPath id="i" transform="translate(-9 -7)"><polygon points="224.8 131.49 173.11 169.37 136.12 223.29 127.65 296.37 176.67 397.97 240.84 433.18 308.13 436.74 370.07 414.91 411.96 376.58 435.13 328.45 436.47 225.96 416.86 190.31 373.19 147.97 285.85 123.02 224.8 131.49" style="fill:none"/></clipPath><clipPath id="j" transform="translate(-9 -7)"><rect x="163.44" y="140.31" width="258.42" height="260" style="fill:none"/></clipPath><clipPath id="k" transform="translate(-9 -7)"><rect x="97.25" y="85.29" width="340.59" height="357.25" style="fill:none"/></clipPath><clipPath id="l" transform="translate(-9 -7)"><rect x="95.68" y="71.98" width="385.28" height="348.63" style="fill:none"/></clipPath><clipPath id="m" transform="translate(-9 -7)"><rect x="72.51" y="76.19" width="427.23" height="419.58" style="fill:none"/></clipPath><clipPath id="n" transform="translate(-9 -7)"><rect x="103.91" y="98.09" width="367.57" height="324.04" style="fill:none"/></clipPath><clipPath id="o" transform="translate(-9 -7)"><rect x="190.4" y="169.15" width="211.4" height="184.02" style="fill:none"/></clipPath><clipPath id="p" transform="translate(-9 -7)"><rect x="166.78" y="147.76" width="252.85" height="252.55" style="fill:none"/></clipPath><clipPath id="q" transform="translate(-9 -7)"><rect x="199.31" y="254.27" width="220.31" height="84.65" style="fill:none"/></clipPath><clipPath id="r" transform="translate(-9 -7)"><rect x="190.62" y="185.64" width="204.94" height="152.05" style="fill:none"/></clipPath><clipPath id="s" transform="translate(-9 -7)"><rect x="224.93" y="202.57" width="147.46" height="120.74" style="fill:none"/></clipPath></defs><title>Element 3</title><g style="clip-path:url(#b)"><g style="clip-path:url(#b)"><g style="mask:url(#d)"><g style="clip-path:url(#f)"><path d="M286.63,562.25C440,562.25,564.25,438,564.25,284.62S440,7,286.63,7,9,131.3,9,284.62,133.3,562.25,286.63,562.25" transform="translate(-9 -7)" style="fill:#213b8a"/></g></g></g><polygon points="67.16 297.02 78.45 199.57 127.77 127.66 196.71 77.15 278.12 65.86 394.59 99.14 452.82 155.59 478.97 203.13 477.19 339.81 446.29 403.99 390.43 455.09 307.83 484.21 218.1 479.45 132.53 432.51 67.16 297.02" style="fill:none;stroke:#fff;stroke-width:0.29499998688697815px"/><g style="clip-path:url(#b)"><path d="M136.24,137.24a2.79,2.79,0,1,0-2.78-2.78,2.78,2.78,0,0,0,2.78,2.78" transform="translate(-9 -7)" style="fill:#fff"/><path d="M205.73,87.11A2.79,2.79,0,1,0,203,84.32a2.79,2.79,0,0,0,2.78,2.79" transform="translate(-9 -7)" style="fill:#fff"/><path d="M287.06,75.88a2.79,2.79,0,1,0-2.78-2.79,2.79,2.79,0,0,0,2.78,2.79" transform="translate(-9 -7)" style="fill:#fff"/><path d="M403.67,109.3a2.79,2.79,0,1,0-2.79-2.79,2.79,2.79,0,0,0,2.79,2.79" transform="translate(-9 -7)" style="fill:#fff"/><path d="M462,165.37a2.79,2.79,0,1,0-2.79-2.78,2.77,2.77,0,0,0,2.79,2.78" transform="translate(-9 -7)" style="fill:#fff"/><path d="M487.5,212.91a2.79,2.79,0,1,0-2.79-2.79,2.78,2.78,0,0,0,2.79,2.79" transform="translate(-9 -7)" style="fill:#fff"/><path d="M486.11,349.75a2.79,2.79,0,1,0-2.79-2.78,2.78,2.78,0,0,0,2.79,2.78" transform="translate(-9 -7)" style="fill:#fff"/><path d="M455.28,414a2.79,2.79,0,1,0-2.78-2.79,2.79,2.79,0,0,0,2.78,2.79" transform="translate(-9 -7)" style="fill:#fff"/><path d="M399.58,465.06a2.79,2.79,0,1,0-2.78-2.79,2.79,2.79,0,0,0,2.78,2.79" transform="translate(-9 -7)" style="fill:#fff"/><path d="M317.05,493.84a2.79,2.79,0,1,0-2.79-2.79,2.78,2.78,0,0,0,2.79,2.79" transform="translate(-9 -7)" style="fill:#fff"/><path d="M227,489.2a2.79,2.79,0,1,0-2.78-2.79A2.79,2.79,0,0,0,227,489.2" transform="translate(-9 -7)" style="fill:#fff"/><path d="M141.58,442.31a2.79,2.79,0,1,0-2.78-2.78,2.79,2.79,0,0,0,2.78,2.78" transform="translate(-9 -7)" style="fill:#fff"/><path d="M75.86,307a2.79,2.79,0,1,0-2.79-2.78A2.77,2.77,0,0,0,75.86,307" transform="translate(-9 -7)" style="fill:#fff"/><path d="M87.27,209.47a2.79,2.79,0,1,0-2.78-2.78,2.79,2.79,0,0,0,2.78,2.78" transform="translate(-9 -7)" style="fill:#fff"/><g style="opacity:0.3000029921531677"><g style="clip-path:url(#h)"><polygon points="118.65 289.37 127.12 216.29 164.11 162.37 215.8 124.49 276.85 116.02 364.19 140.97 407.86 183.31 427.47 218.96 426.13 321.45 402.96 369.58 361.07 407.91 299.13 429.74 231.84 426.18 167.67 390.97 118.65 289.37" style="fill:#fff"/></g></g></g><g style="clip-path:url(#i)"><g style="opacity:0.19999699294567108"><g style="clip-path:url(#j)"><polygon points="163.44 161.7 166.78 392.31 403.85 370.47 364.97 140.31 163.44 161.7" style="fill:#009ee2"/></g></g><g style="opacity:0.10000599920749664"><g style="clip-path:url(#k)"><polygon points="215.25 123.31 117.41 290.03 299.87 430.74 409.41 182.47 215.25 123.31" style="fill:#13002c"/></g></g><g style="opacity:0.19999699294567108"><g style="clip-path:url(#l)"><polygon points="276.85 115.13 126.23 215.84 361.96 408.8 428.81 218.07 276.85 115.13" style="fill:#13002c"/></g></g><g style="opacity:0.10000599920749664"><g style="clip-path:url(#m)"><polygon points="276.85 115.13 162.77 162.37 231.84 427.51 427.03 321.9 276.85 115.13" style="fill:#66c0be"/></g></g><g style="opacity:0.19999699294567108"><g style="clip-path:url(#n)"><polygon points="430.59 216.29 162.77 162.37 116.42 291.6 363.3 408.8 430.59 216.29" style="fill:#66c0be"/></g></g><g style="opacity:0.19999699294567108"><g style="clip-path:url(#o)"><polygon points="197.08 169.15 190.4 268.53 383.8 345.18 377.56 253.82 197.08 169.15" style="fill:#13002c"/></g></g><g style="opacity:0.19999699294567108"><g style="clip-path:url(#p)"><polygon points="294.9 147.76 166.78 392.31 323.64 379.04 401.63 199.46 294.9 147.76" style="fill:#66c0be"/></g></g><g style="opacity:0.19999699294567108"><g style="clip-path:url(#q)"><polygon points="225.16 282.12 199.31 330.92 401.63 301.95 377.12 254.27 225.16 282.12" style="fill:#13002c"/></g></g><g style="opacity:0.19999699294567108"><g style="clip-path:url(#r)"><polygon points="275.51 185.64 190.62 268.2 345.03 329.69 377.56 254.38 275.51 185.64" style="fill:#66c0be"/></g></g><g style="opacity:0.3000029921531677"><g style="clip-path:url(#s)"><polygon points="224.93 281.9 309.38 315.32 354.39 308.86 266.15 202.57 224.93 281.9" style="fill:#13002c"/></g></g></g><g style="clip-path:url(#b)"><path d="M353.53,339.63a2.79,2.79,0,1,0-2.78-2.78,2.79,2.79,0,0,0,2.78,2.78" transform="translate(-9 -7)" style="fill:#fff"/><path d="M234.05,292.28a2.79,2.79,0,1,0-2.79-2.78,2.77,2.77,0,0,0,2.79,2.78" transform="translate(-9 -7)" style="fill:#fff"/><path d="M304,158a2.79,2.79,0,1,0-2.79-2.79A2.79,2.79,0,0,0,304,158" transform="translate(-9 -7)" style="fill:#fff"/><path d="M386.68,215a2.79,2.79,0,1,0-2.79-2.78,2.79,2.79,0,0,0,2.79,2.78" transform="translate(-9 -7)" style="fill:#fff"/><path d="M436.47,229.06a2.79,2.79,0,1,0-2.78-2.78,2.79,2.79,0,0,0,2.78,2.78" transform="translate(-9 -7)" style="fill:#fff"/><path d="M409.51,310.94a2.79,2.79,0,1,0-2.78-2.78,2.78,2.78,0,0,0,2.78,2.78" transform="translate(-9 -7)" style="fill:#fff"/><path d="M326.8,275.29a2.79,2.79,0,1,0-2.79-2.78,2.78,2.78,0,0,0,2.79,2.78" transform="translate(-9 -7)" style="fill:#fff"/><path d="M270.53,209.47a2.79,2.79,0,1,0-2.78-2.78,2.79,2.79,0,0,0,2.78,2.78" transform="translate(-9 -7)" style="fill:#fff"/><path d="M206.48,179.48a2.79,2.79,0,1,0-2.79-2.78,2.78,2.78,0,0,0,2.79,2.78" transform="translate(-9 -7)" style="fill:#fff"/><path d="M226.25,134.46a2.79,2.79,0,1,0-2.78-2.79,2.79,2.79,0,0,0,2.78,2.79" transform="translate(-9 -7)" style="fill:#fff"/><path d="M372.75,150.8A2.79,2.79,0,1,0,370,148a2.79,2.79,0,0,0,2.78,2.79" transform="translate(-9 -7)" style="fill:#fff"/><path d="M136,226.28a2.79,2.79,0,1,0-2.78-2.79,2.79,2.79,0,0,0,2.78,2.79" transform="translate(-9 -7)" style="fill:#fff"/><path d="M174.45,324.87a2.79,2.79,0,1,0-2.79-2.78,2.79,2.79,0,0,0,2.79,2.78" transform="translate(-9 -7)" style="fill:#fff"/><path d="M177.23,401.18a2.79,2.79,0,1,0-2.78-2.78,2.78,2.78,0,0,0,2.78,2.78" transform="translate(-9 -7)" style="fill:#fff"/><path d="M326.8,398.4a2.79,2.79,0,1,0-2.79-2.79,2.79,2.79,0,0,0,2.79,2.79" transform="translate(-9 -7)" style="fill:#fff"/><path d="M370.52,416.78a2.79,2.79,0,1,0-2.78-2.78,2.79,2.79,0,0,0,2.78,2.78" transform="translate(-9 -7)" style="fill:#fff"/><path d="M250.2,395.89a2.79,2.79,0,1,0-2.78-2.78,2.78,2.78,0,0,0,2.78,2.78" transform="translate(-9 -7)" style="fill:#fff"/><path d="M265.8,332.39a2.79,2.79,0,1,0-2.78-2.78,2.78,2.78,0,0,0,2.78,2.78" transform="translate(-9 -7)" style="fill:#fff"/><path d="M127.65,299a2.79,2.79,0,1,0-2.78-2.79,2.79,2.79,0,0,0,2.78,2.79" transform="translate(-9 -7)" style="fill:#fff"/><path d="M284.85,459.49a2.79,2.79,0,1,0-2.79-2.79,2.78,2.78,0,0,0,2.79,2.79" transform="translate(-9 -7)" style="fill:#fff"/><path d="M440.43,368a2.79,2.79,0,1,0-2.78-2.78,2.79,2.79,0,0,0,2.78,2.78" transform="translate(-9 -7)" style="fill:#fff"/><path d="M467.54,284.82a2.79,2.79,0,1,0-2.79-2.79,2.78,2.78,0,0,0,2.79,2.79" transform="translate(-9 -7)" style="fill:#fff"/><path d="M412.3,158a2.79,2.79,0,1,0-2.78-2.79A2.78,2.78,0,0,0,412.3,158" transform="translate(-9 -7)" style="fill:#fff"/><path d="M320.11,100.36a2.79,2.79,0,1,0-2.78-2.79,2.79,2.79,0,0,0,2.78,2.79" transform="translate(-9 -7)" style="fill:#fff"/><path d="M174.17,135.76a2.79,2.79,0,1,0-2.79-2.79,2.78,2.78,0,0,0,2.79,2.79" transform="translate(-9 -7)" style="fill:#fff"/><path d="M97.85,255.24a2.79,2.79,0,1,0-2.78-2.78,2.79,2.79,0,0,0,2.78,2.78" transform="translate(-9 -7)" style="fill:#fff"/><path d="M138.8,362.47a2.79,2.79,0,1,0-2.79-2.78,2.79,2.79,0,0,0,2.79,2.78" transform="translate(-9 -7)" style="fill:#fff"/></g><polyline points="344.53 331.24 361.94 407 431.65 358.25 401.63 301.16 477.11 339.97 431.43 358.25 446.47 404.21 361.52 407 390.58 455.27 317.87 389.03 361.52 407 400.63 301.16 317.8 266.62 344.53 329.85 400.51 301.16 377.68 205.26 319.19 265.51 261.54 199.69 224.77 282.5 317.8 265.51 256.8 322.61 166.84 315.08 225.05 282.5 256.8 322.68 317.8 388.61 344.53 329.85 256.66 322.61 275.85 449.7 317.8 388.61 308.05 484.05 275.85 449.7 241.2 386.11 256.8 322.61 168.23 391.82 217.99 479.41 241.2 386.11 168.23 391.4 165.45 315.92 130.49 352.69 168.23 391.4 132.26 432.53 129.8 352.69 118.65 289.18 165.45 315.08 127.24 216.49 197.64 169.7 127.24 127.46 165.17 125.97 197.48 169.7 78.27 199.69 127.01 216.48 88.85 245.46 66.86 297.17 118.6 289.18 127.01 216.49" style="fill:none;stroke:#fff;stroke-width:0.29499998688697815px"/><polyline points="477.11 339.97 458.54 275.03 400.51 301.16 427.47 219.28 458.54 274.97 478.5 203.12 428.64 219.28 377.68 205.26 403.3 148.25 427.39 219.69 452.97 155.59 403.02 148.25 394.67 99.51 363.75 141.01 403.02 148.25 261.67 199.69 294.96 148.25 217.25 124.67 197.48 169.7 295.17 148.32 311.11 90.6 363.75 141.08 294.96 148.25 278.25 66.41 311.11 90.74 394.67 99.51" style="fill:none;stroke:#fff;stroke-width:0.29499998688697815px"/><polyline points="165.17 125.87 196.73 77.33 217.25 124.67 165.17 126.06" style="fill:none;stroke:#fff;stroke-width:0.29499998688697815px"/><line x1="278.06" y1="66.09" x2="217.4" y2="124.67" style="fill:none;stroke:#fff;stroke-width:0.29499998688697815px"/><polyline points="261.54 199.69 197.48 169.98 225.05 282.5 128.4 216.49" style="fill:none;stroke:#fff;stroke-width:0.29499998688697815px"/><line x1="377.68" y1="205.26" x2="261.58" y2="199.69" style="fill:none;stroke:#fff;stroke-width:0.29499998688697815px"/><line x1="275.85" y1="449.7" x2="217.99" y2="479.41" style="fill:none;stroke:#fff;stroke-width:0.29499998688697815px"/><line x1="129.8" y1="352.69" x2="66.7" y2="297.17" style="fill:none;stroke:#fff;stroke-width:0.29499998688697815px"/><line x1="88.85" y1="245.46" x2="78.27" y2="199.59" style="fill:none;stroke:#fff;stroke-width:0.29499998688697815px"/><line x1="294.96" y1="148.25" x2="377.68" y2="205.91" style="fill:none;stroke:#fff;stroke-width:0.29499998688697815px"/><line x1="225.05" y1="282.73" x2="168.23" y2="391.4" style="fill:none;stroke:#fff;stroke-width:0.29499998688697815px"/><g style="clip-path:url(#b)"><path d="M140.75,465.52a27.85,27.85,0,1,0-27.85-27.85,27.85,27.85,0,0,0,27.85,27.85" transform="translate(-9 -7)" style="fill:#009ee2"/><path d="M143,424.7h0v7.79h-5.47v-7.92h0a2.74,2.74,0,0,1,5.47,0h0Zm1.42,15.51V424.38h0v-.2h0a4.13,4.13,0,0,0-8.26,0h0v16a8,8,0,1,0,8.28,0" transform="translate(-9 -7)" style="fill:#fff"/><path d="M151.15,428h-3.92a.83.83,0,0,1,0-1.66h3.92a.83.83,0,0,1,0,1.66" transform="translate(-9 -7)" style="fill:#fff"/><path d="M151.15,432.27h-3.92a.83.83,0,0,1,0-1.66h3.92a.83.83,0,0,1,0,1.66" transform="translate(-9 -7)" style="fill:#fff"/><path d="M151.15,436.56h-3.92a.83.83,0,1,1,0-1.66h3.92a.83.83,0,1,1,0,1.66" transform="translate(-9 -7)" style="fill:#fff"/><path d="M88,228.36a20.89,20.89,0,1,0-20.89-20.88A20.88,20.88,0,0,0,88,228.36" transform="translate(-9 -7)" style="fill:#009ee2"/></g><rect x="70.29" y="193.79" width="17.37" height="1.55" style="fill:#fff"/><polygon points="67.99 192.55 67.99 193.4 89.95 193.4 89.95 192.55 78.97 187.06 67.99 192.55" style="fill:#fff"/><polygon points="91.16 211.83 91.16 210.28 90.07 210.28 90.07 208.73 88.86 208.73 88.86 207.19 69.08 207.19 69.08 208.73 67.87 208.73 67.87 210.28 66.79 210.28 66.79 211.83 91.16 211.83" style="fill:#fff"/><polygon points="71.12 195.6 70.95 206.7 73.48 206.7 73.31 195.6 71.12 195.6" style="fill:#fff"/><polygon points="75.63 195.6 75.45 206.7 77.99 206.7 77.82 195.6 75.63 195.6" style="fill:#fff"/><polygon points="80.13 195.6 79.96 206.7 82.49 206.7 82.32 195.6 80.13 195.6" style="fill:#fff"/><polygon points="84.63 195.6 84.46 206.7 87 206.7 86.82 195.6 84.63 195.6" style="fill:#fff"/><g style="clip-path:url(#b)"><path d="M173.34,343a20.89,20.89,0,1,0-20.89-20.88A20.88,20.88,0,0,0,173.34,343" transform="translate(-9 -7)" style="fill:#009ee2"/><path d="M163.62,324a9.61,9.61,0,0,1-.44-.92m5.28.92h-4.84a13.43,13.43,0,0,0,.77,1.3c2.09,3,8.85,7.35,8.85,7.35a46.09,46.09,0,0,0,7.75-5.86,12.63,12.63,0,0,0,2.27-2.93h-5.1l-.38-1-1.53,1-.83-1.65-2.84,7.38-1.15-9.17-2,5.05-.62-2.17Zm10.27-1.1h5a7.22,7.22,0,0,0,0-5.35c-1.13-3.05-4.3-3.71-6.25-3.58s-4.23,2-4.23,2a8.4,8.4,0,0,0-5.33-2,5.61,5.61,0,0,0-4.82,3.07,7,7,0,0,0,.09,6.05h4.91l1-2,.54,1.78,2.24-6.19,1.07,9.68,2.29-6.51,1.27,2.79,1.75-1.1Zm5,0a10.48,10.48,0,0,1-.46,1" transform="translate(-9 -7)" style="fill:#fff"/><path d="M326.8,295.22A27.85,27.85,0,1,0,299,267.37a27.85,27.85,0,0,0,27.85,27.85" transform="translate(-9 -7)" style="fill:#009ee2"/></g><path d="M332.12,278.36h-2.3V276h2.3Zm0-3.78h-2.3v-2.31h2.3Zm0-3.77h-2.3V268.5h2.3Zm0-3.93h-2.3v-2.32h2.3Zm0-3.94h-2.3v-2.31h2.3Zm0-3.93h-2.3V256.7h2.3Zm0-3.93h-2.3v-2.32h2.3Zm-4.36,23.28h-2.31V276h2.31Zm0-3.78h-2.31v-2.31h2.31Zm0-3.77h-2.31V268.5h2.31Zm0-3.93h-2.31v-2.32h2.31Zm0-3.94h-2.31v-2.31h2.31Zm0-3.93h-2.31V256.7h2.31Zm0-3.93h-2.31v-2.32h2.31Zm-4.37,23.28h-2.3V276h2.3Zm0-3.78h-2.3v-2.31h2.3Zm0-3.77h-2.3V268.5h2.3Zm0-3.93h-2.3v-2.32h2.3Zm0-3.94h-2.3v-2.31h2.3Zm0-3.93h-2.3V256.7h2.3Zm0-3.93h-2.3v-2.32h2.3Zm11.47-3.71h-3.53v-1.8h-9.75v1.8h-3.23v33.74h7.1v-4.46h2.31v4.46h7.1Z" transform="translate(-9 -7)" style="fill:#fff"/><g style="clip-path:url(#b)"><path d="M405.9,134.36a27.85,27.85,0,1,0-27.85-27.85,27.85,27.85,0,0,0,27.85,27.85" transform="translate(-9 -7)" style="fill:#009ee2"/><path d="M424.92,101.58,406.61,90.87a1.2,1.2,0,0,0-1.12,0l-18.61,10.71s-.56.33,0,.64l18.6,10.43a1.22,1.22,0,0,0,1.13,0l13.18-7.5V114a1.93,1.93,0,0,0-.58,3.52,10.71,10.71,0,0,0-.16,2c0,1.57.25,2.84.55,2.84.12,0,.23-.2.32-.52.09.32.2.52.32.52s.23-.2.32-.52c.09.32.2.52.32.52.31,0,.56-1.27.56-2.84a10.71,10.71,0,0,0-.16-2,1.94,1.94,0,0,0-.59-3.52l.25-9.48,4-2.26s.56-.32,0-.65" transform="translate(-9 -7)" style="fill:#fff"/><path d="M406,116.14a.11.11,0,0,0,.06,0l8.85-5.15s0,0,0,0v5.11a.06.06,0,0,1,0,0L406.08,121a.06.06,0,0,1-.06,0l-9.5-4.87a.07.07,0,0,1,0,0v-5.18s0,0,0,0Z" transform="translate(-9 -7)" style="fill:#fff"/><path d="M210.1,106.51a20.89,20.89,0,1,0-20.89-20.89,20.89,20.89,0,0,0,20.89,20.89" transform="translate(-9 -7)" style="fill:#009ee2"/><path d="M218.68,96.07h-.89V93.15h.89Zm-4,0h-.89V93.15h.89Zm-3.77,0H210V93.15h.89Zm-3.77,0h-.9V93.15h.9Zm-3.78,0h-.89V93.15h.89Zm17.62.09V82.71a.7.7,0,0,0-.72-.71h-1.16l-.22-8.46h-.74L217.9,82H201a.7.7,0,0,0-.71.71V96.16a.7.7,0,0,0,.71.71h19.24a.7.7,0,0,0,.72-.71" transform="translate(-9 -7)" style="fill:#fff"/><path d="M372.48,439.9a27.85,27.85,0,1,0-27.85-27.85,27.85,27.85,0,0,0,27.85,27.85" transform="translate(-9 -7)" style="fill:#009ee2"/><path d="M383.39,404.52a1.29,1.29,0,1,1,1.27-1.29,1.27,1.27,0,0,1-1.27,1.29m2.11-5h-26a1.34,1.34,0,0,0-1.37,1.37v4.76a1.35,1.35,0,0,0,1.37,1.38h26a1.34,1.34,0,0,0,1.37-1.38v-4.76a1.34,1.34,0,0,0-1.37-1.37" transform="translate(-9 -7)" style="fill:#fff"/><path d="M383.39,413.27a1.29,1.29,0,0,1,0-2.57,1.29,1.29,0,0,1,0,2.57m2.11-5h-26a1.34,1.34,0,0,0-1.37,1.37v4.77a1.34,1.34,0,0,0,1.37,1.37h26a1.34,1.34,0,0,0,1.37-1.37v-4.77a1.34,1.34,0,0,0-1.37-1.37" transform="translate(-9 -7)" style="fill:#fff"/><path d="M383.39,422.09a1.29,1.29,0,1,1,1.27-1.29,1.27,1.27,0,0,1-1.27,1.29m2.11-5h-26a1.34,1.34,0,0,0-1.37,1.37v4.76a1.34,1.34,0,0,0,1.37,1.37h26a1.34,1.34,0,0,0,1.37-1.37v-4.76a1.34,1.34,0,0,0-1.37-1.37" transform="translate(-9 -7)" style="fill:#fff"/><path d="M485.28,367.48a20.89,20.89,0,1,0-20.89-20.89,20.89,20.89,0,0,0,20.89,20.89" transform="translate(-9 -7)" style="fill:#009ee2"/></g><polygon points="486.78 349.56 466.16 349.56 466.16 340.41 467.23 340.41 467.76 327.27 469.42 327.27 469.84 340.41 470.9 340.41 475.05 336.65 475.05 340.41 479.26 336.69 479.26 340.44 483.11 336.57 483.11 340.41 486.72 336.69 486.78 349.56" style="fill:#fff"/><g style="clip-path:url(#b)"><path d="M251,407.59a13.93,13.93,0,1,0-13.92-13.93A13.92,13.92,0,0,0,251,407.59" transform="translate(-9 -7)" style="fill:#009ee2"/><path d="M255.49,396.65a4.22,4.22,0,0,1-4.19,4.24.39.39,0,1,1,0-.78,3.44,3.44,0,0,0,3.4-3.46.4.4,0,1,1,.79,0m.89.24a4.24,4.24,0,0,0-.07-.68,4.57,4.57,0,0,0-.21-.92c-.92-3.17-3.77-5.94-4.71-10.51-1.09,4.68-4,7.61-4.78,10.74a5.18,5.18,0,0,0-.14.66,4.6,4.6,0,0,0-.07.71,5,5,0,0,0,10,0" transform="translate(-9 -7)" style="fill:#fff"/><path d="M205.92,205.11a27.85,27.85,0,1,0-27.85-27.85,27.85,27.85,0,0,0,27.85,27.85" transform="translate(-9 -7)" style="fill:#009ee2"/><path d="M213.33,173.05H198.51v-6.71h14.82Zm5.94,0h-4.33v-8.17h-18v8.17h-4.33s-3.18-.27-3.75,2.61H223c-.27-1.14-1.11-2.61-3.72-2.61" transform="translate(-9 -7)" style="fill:#fff"/><path d="M213.34,187.32H198.51v-5.45h14.83Zm-11.43-9.19a.93.93,0,0,1,0,1.85.93.93,0,0,1,0-1.85m3.84,0a.93.93,0,1,1-.91.92.92.92,0,0,1,.91-.92m4.19,0a.93.93,0,1,1-.91.92.92.92,0,0,1,.91-.92m-21.22-1.24v5.72s0,3.84,3.85,3.84h3v3.19h20.79v-3.19h3s3.85,0,3.85-3.84v-5.72Z" transform="translate(-9 -7)" style="fill:#fff"/><path d="M317.89,504.51A13.93,13.93,0,1,0,304,490.59a13.92,13.92,0,0,0,13.93,13.92" transform="translate(-9 -7)" style="fill:#009ee2"/><path d="M327.68,488.45a13.64,13.64,0,0,0-19.28,0l0,0,1.38,1.39,0,0a11.67,11.67,0,0,1,16.51,0Z" transform="translate(-9 -7)" style="fill:#fff"/><path d="M316.68,496.73l0,0,1.36,1.36,1.38-1.38a1.93,1.93,0,0,0-2.72,0" transform="translate(-9 -7)" style="fill:#fff"/><path d="M313.92,494l0,0,1.37,1.37,0,0a3.88,3.88,0,0,1,5.49,0l1.37-1.36a5.81,5.81,0,0,0-8.23,0" transform="translate(-9 -7)" style="fill:#fff"/><path d="M311.1,491.16l0,0,1.45,1.45,0,0a7.77,7.77,0,0,1,11,0l1.44-1.44a9.81,9.81,0,0,0-13.87,0" transform="translate(-9 -7)" style="fill:#fff"/><path d="M436,246.48a20.89,20.89,0,1,0-20.89-20.89A20.89,20.89,0,0,0,436,246.48" transform="translate(-9 -7)" style="fill:#009ee2"/><path d="M439.48,228a4.15,4.15,0,0,1-2.44,2.08,4.17,4.17,0,0,1-5-5.85,4.17,4.17,0,0,1,3.73-2.28,4.16,4.16,0,0,1,3.74,6.05m9.67-6.64a2.18,2.18,0,0,0-3-.69,2.13,2.13,0,0,0-1,1.8l-4.48,1.44a5.42,5.42,0,0,0-4.24-3.15v-4.45a1.7,1.7,0,0,0,.53-.2,2.16,2.16,0,0,0,.7-3,2.2,2.2,0,0,0-3-.7,2.17,2.17,0,0,0-.69,3,2.12,2.12,0,0,0,1.22.91v4.4a5.67,5.67,0,0,0-1.13.23,5.38,5.38,0,0,0-3.16,2.7c0,.08-.06.16-.1.24l-4-1.31a2.08,2.08,0,0,0-.29-1.23,2.18,2.18,0,1,0-.69,3,2.41,2.41,0,0,0,.61-.58l4,1.31a5.27,5.27,0,0,0,.14,2.7,5.22,5.22,0,0,0,1.55,2.28l-2.63,3.65a2.16,2.16,0,1,0,1.31.94,3.07,3.07,0,0,0-.25-.26l2.59-3.6a5.09,5.09,0,0,0,4.28.47h0a5.51,5.51,0,0,0,1.05-.47l2.63,3.63a2.15,2.15,0,0,0-.2,2.54,2.18,2.18,0,1,0,1.26-3.21l-2.69-3.72a5.21,5.21,0,0,0,1.12-1.47,5.28,5.28,0,0,0,.47-3.47l4.41-1.42a2.18,2.18,0,0,0,3.68-2.32" transform="translate(-9 -7)" style="fill:#fff"/></g></g></svg>